<?xml version="1.0" encoding="UTF-8" standalone="no"?>
<!-- Created with Inkscape (http://www.inkscape.org/) -->

<svg
   version="1.1"
   id="svg1"
   width="200"
   height="200"
   viewBox="0 0 200.00001 200"
   xmlns="http://www.w3.org/2000/svg"
   xmlns:svg="http://www.w3.org/2000/svg">
  <defs
     id="defs1" />
  <g
     id="g1">
    <path
       id="path2"
       d="m 143.85653,136.40648 -24.26453,8e-4 -19.40266,-14.366 -0.0604,0.0457 -19.342137,14.32026 H 56.14347 V 63.593515 h 24.450133 v 47.195725 l 19.793467,-14.741725 19.5232,14.771595 V 63.592715 h 23.94626 z"
       style="fill:#c51a1b;fill-opacity:1;fill-rule:nonzero;stroke:none;stroke-width:1.33333" />
    <path
       id="path3"
       d="m 105.06274,16.9808 c 43.53559,2.61733 78.03546,38.74667 78.03546,82.94027 0,13.33186 -3.14493,25.92759 -8.72467,37.09373 l -8.9268,-5.15414 c 4.71534,-9.64346 7.36507,-20.4816 7.36507,-31.93959 0,-38.5108 -29.89867,-70.03347 -67.74906,-72.63347 z m 64.24053,128.7984 c -14.878,22.44133 -40.3612,37.24 -69.3032,37.24 -28.942133,0 -54.424133,-14.79947 -69.302932,-37.2396 l 8.923733,-5.15227 c 13.084399,19.37 35.244532,32.1056 60.379199,32.1056 25.13493,0 47.29586,-12.7348 60.37946,-32.1056 z m -143.676799,-8.764 c -5.5812,-11.16547 -8.724666,-23.76227 -8.724666,-37.09413 0,-44.19334 34.499866,-80.32294 78.035198,-82.94027 V 27.2876 C 57.08687,29.88787 27.188204,61.41027 27.188204,99.92107 c 0,11.45839 2.649734,22.29613 7.365067,31.93999 z"
       style="fill:#c51a1b;fill-opacity:1;fill-rule:evenodd;stroke:none;stroke-width:1.33333" />
  </g>
</svg>
