<?xml version="1.0" encoding="UTF-8" standalone="no"?>
<!-- Created with Inkscape (http://www.inkscape.org/) -->

<svg
   version="1.1"
   id="svg1"
   width="900"
   height="180"
   viewBox="0 0 900.00004 180"
   xmlns="http://www.w3.org/2000/svg"
   xmlns:svg="http://www.w3.org/2000/svg">
  <defs
     id="defs1" />
  <g
     id="g1">
    <g
       id="g2"
       transform="translate(-111.20651,-117.95294)">
      <path
         id="path1"
         d="M 318.4724,182.2762 303.9786,127.6333 H 289.889 l -7.6445,30.1434 -7.2175,-30.1434 h -14.6909 l -14.5185,54.6429 h 15.7833 l 7.6425,-31.4498 7.456,31.4498 h 13.1689 l 8.1105,-31.5102 7.6558,31.5102 z m 428.762,-41.7523 v -12.8906 h -45.4739 v 10.4488 l 24.2112,31.5442 h -22.371 v 12.6499 h 42.8723 v -10.6086 l -23.5105,-31.1437 z m -63.5281,7.9659 15.3321,-0.9207 c -0.7198,-6.6988 -3.1972,-11.8341 -7.4245,-15.4108 -4.231,-3.5771 -9.4281,-5.3649 -15.5931,-5.3649 -7.4194,0 -13.4096,2.4554 -17.9731,7.3667 -4.5635,4.9076 -6.8457,11.6872 -6.8457,20.3335 0,8.5674 2.1617,15.4786 6.4848,20.738 4.3232,5.2554 10.3547,7.8848 18.0953,7.8848 7.2306,0 12.7888,-2.0018 16.6719,-6.0052 3.8815,-4.0019 6.0767,-9.3135 6.5844,-15.9321 l -15.6515,-0.8416 c 0,3.6575 -0.7013,6.2988 -2.1016,7.9265 -1.4001,1.6277 -3.0507,2.4435 -4.9434,2.4435 -5.2855,0 -7.9265,-5.3122 -7.9265,-15.9336 0,-5.951 0.6863,-9.9924 2.0619,-12.1272 1.3743,-2.1376 3.301,-3.2034 5.7838,-3.2034 4.4303,0 6.9115,3.0152 7.4452,9.0465 z m -39.59,-20.8551 h -16.7721 v 54.6427 h 16.7721 z m -22.0964,54.6415 -14.4935,-54.6429 h -14.0899 l -7.6442,30.1434 -7.2179,-30.1434 h -14.6911 l -14.5179,54.6429 h 15.7827 l 7.6425,-31.4498 7.4568,31.4498 h 13.1687 l 8.1105,-31.5102 7.6558,31.5102 z m -75.0963,-41.593 v -13.0485 h -41.1114 v 54.641 h 41.1114 v -12.6088 h -24.6588 v -7.926 h 19.9349 v -12.1294 h -19.9349 v -8.9283 z M 496.2864,127.6347 H 479.514 v 54.6427 h 16.7724 z m -26.3004,-2e-4 h -13.65 l -14.9655,24.1418 c -1.9208,3.0957 -3.8591,6.8567 -5.8096,11.2847 0.8796,-3.524 1.3212,-6.5109 1.3212,-8.9677 v -26.4588 h -13.6105 v 54.6423 h 15.851 l 12.7304,-20.0143 c 2.5356,-3.9776 4.4569,-7.4733 5.7634,-10.4899 -0.8538,4.6689 -1.2804,9.4465 -1.2804,14.3297 v 16.1745 h 13.65 z m -52.5603,13.4095 v -13.4093 h -38.3083 v 54.6404 h 16.7718 V 141.044 Z m -71.413,-1.8402 c 2.8293,0 4.8646,1.2328 6.1056,3.7006 1.2401,2.4681 1.8603,6.9868 1.8603,13.5525 0,9.4974 -2.5489,14.2494 -7.6461,14.2494 -5.4981,0 -8.2457,-5.417 -8.2457,-16.2516 0,-10.1687 2.6427,-15.2509 7.9259,-15.2509 z m 0.0794,-12.4092 c -7.6842,0 -13.9487,2.5483 -18.7926,7.6441 -4.8438,5.0979 -7.2669,11.9169 -7.2669,20.456 0,8.1655 2.3162,14.9111 6.9458,20.2359 4.6295,5.3235 11.0534,7.9847 19.2753,7.9847 7.6045,0 13.8038,-2.5073 18.5933,-7.5257 4.7908,-5.0171 7.1852,-11.7139 7.1852,-20.0954 0,-8.6726 -2.4151,-15.6234 -7.2456,-20.8539 -4.8308,-5.2311 -11.0617,-7.8457 -18.6945,-7.8457"
         style="fill:#181210;fill-opacity:1;fill-rule:nonzero;stroke:none"
         transform="matrix(1.3333333,0,0,-1.3333333,0,415.748)" />
      <path
         id="path2"
         d="m 189.7903,128.6643 -18.1984,-6e-4 -14.552,10.7745 -0.0453,-0.0343 -14.5066,-10.7402 h -18.4825 v 54.6103 h 18.3376 v -35.3968 l 14.8451,11.0563 14.6424,-11.0787 v 35.4198 h 17.9597 z"
         style="fill:#c51a1b;fill-opacity:1;fill-rule:nonzero;stroke:none"
         transform="matrix(1.3333333,0,0,-1.3333333,0,415.748)" />
      <path
         id="path3"
         d="m 160.6961,218.1107 c 32.6517,-1.963 58.5266,-29.06 58.5266,-62.2052 0,-9.9989 -2.3587,-19.4457 -6.5435,-27.8203 l -6.6951,3.8656 c 3.5365,7.2326 5.5238,15.3612 5.5238,23.9547 0,28.8831 -22.424,52.5251 -50.8118,54.4751 z m 48.1804,-96.5988 c -11.1585,-16.831 -30.2709,-27.93 -51.9774,-27.93 -21.7066,0 -40.8181,11.0996 -51.9772,27.9297 l 6.6928,3.8642 c 9.8133,-14.5275 26.4334,-24.0792 45.2844,-24.0792 18.8512,0 35.4719,9.5511 45.2846,24.0792 z m -107.7576,6.573 c -4.1859,8.3741 -6.5435,17.8217 -6.5435,27.8206 0,33.145 25.8749,60.2422 58.5264,62.2052 v -7.7301 c -28.3876,-1.9502 -50.8116,-25.592 -50.8116,-54.4751 0,-8.5938 1.9873,-16.7221 5.5238,-23.955 z"
         style="fill:#c51a1b;fill-opacity:1;fill-rule:evenodd;stroke:none"
         transform="matrix(1.3333333,0,0,-1.3333333,0,415.748)" />
    </g>
  </g>
</svg>
